HIERARCHY
ROOT hips
{
	OFFSET 0.000000 29.995300 -0.000000
	CHANNELS 6 Xposition Yposition Zposition Zrotation Yrotation Xrotation 
	JOINT Chest
	{
		OFFSET 0.000000 10.123600 0.695200
		CHANNELS 3 Zrotation Yrotation Xrotation
		JOINT Chest2
		{
			OFFSET 0.000000 15.405600 0.012300
			CHANNELS 3 Zrotation Yrotation Xrotation
			JOINT Chest3
			{
				OFFSET 0.000000 11.482400 -0.009100
				CHANNELS 3 Zrotation Yrotation Xrotation
				JOINT Neck
				{
					OFFSET 0.000000 25.678300 -0.023300
					CHANNELS 3 Zrotation Yrotation Xrotation
					JOINT Head
					{
						OFFSET 0.000000 13.458800 0.864200
						CHANNELS 3 Zrotation Yrotation Xrotation
						JOINT Head_End
						{
							OFFSET 0.000000 11.713200 -0.000000
							CHANNELS 3 Zrotation Yrotation Xrotation
							End Site
							{
								OFFSET 0.005000 0.000000 0.000000
							}
						}
					}
				}
				JOINT LeftCollar
				{
					OFFSET 12.227600 21.516500 -0.711700
					CHANNELS 3 Zrotation Yrotation Xrotation
					JOINT LeftShoulder
					{
						OFFSET 10.451400 0.021300 -0.002200
						CHANNELS 3 Zrotation Yrotation Xrotation
						JOINT LeftElbow
						{
							OFFSET 26.123400 0.000000 0.000000
							CHANNELS 3 Zrotation Yrotation Xrotation
							JOINT LeftWrist
							{
								OFFSET 25.245600 0.035600 0.002400
								CHANNELS 3 Zrotation Yrotation Xrotation
								JOINT Middle_00_L
								{
									OFFSET 11.653500 0.000000 0.000000
									CHANNELS 3 Zrotation Yrotation Xrotation
									JOINT Middle_01_L
									{
										OFFSET 4.384300 0.000000 0.000000
										CHANNELS 3 Zrotation Yrotation Xrotation
										JOINT Middle_02_L
										{
											OFFSET 3.470400 -0.000300 0.000000
											CHANNELS 3 Zrotation Yrotation Xrotation
											JOINT Middle_03_L
											{
												OFFSET 2.422200 0.000300 0.000000
												CHANNELS 3 Zrotation Yrotation Xrotation
												End Site
												{
													OFFSET 0.005000 0.000000 0.000000
												}
											}
										}
									}
								}
								JOINT Index_00_L
								{
									OFFSET 11.320700 0.000000 3.214800
									CHANNELS 3 Zrotation Yrotation Xrotation
									JOINT Index_01_L
									{
										OFFSET 3.752500 0.000000 0.000000
										CHANNELS 3 Zrotation Yrotation Xrotation
										JOINT Index_02_L
										{
											OFFSET 2.704900 0.000000 0.000300
											CHANNELS 3 Zrotation Yrotation Xrotation
											JOINT Index_03_L
											{
												OFFSET 2.288400 0.000000 -0.000300
												CHANNELS 3 Zrotation Yrotation Xrotation
												End Site
												{
													OFFSET 0.005000 0.000000 0.000000
												}
											}
										}
									}
								}
								JOINT Thumb_00_L
								{
									OFFSET 2.189000 0.000000 5.112700
									CHANNELS 3 Zrotation Yrotation Xrotation
									JOINT Thumb_01_L
									{
										OFFSET 5.672300 0.000000 0.000000
										CHANNELS 3 Zrotation Yrotation Xrotation
										JOINT Thumb_02_L
										{
											OFFSET 3.353600 0.000000 0.000400
											CHANNELS 3 Zrotation Yrotation Xrotation
											JOINT Thumb_03_L
											{
												OFFSET 3.066600 0.000000 -0.000400
												CHANNELS 3 Zrotation Yrotation Xrotation
												End Site
												{
													OFFSET 0.005000 0.000000 0.000000
												}
											}
										}
									}
								}
								JOINT Ring_00_L
								{
									OFFSET 11.421100 0.000000 -3.087400
									CHANNELS 3 Zrotation Yrotation Xrotation
									JOINT Ring_01_L
									{
										OFFSET 4.107700 0.000000 0.000000
										CHANNELS 3 Zrotation Yrotation Xrotation
										JOINT Ring_02_L
										{
											OFFSET 2.971800 0.000000 0.000500
											CHANNELS 3 Zrotation Yrotation Xrotation
											JOINT Ring_03_L
											{
												OFFSET 2.159200 0.000000 -0.000500
												CHANNELS 3 Zrotation Yrotation Xrotation
												End Site
												{
													OFFSET 0.005000 0.000000 0.000000
												}
											}
										}
									}
								}
								JOINT Little_00_L
								{
									OFFSET 10.838200 0.000000 -5.836000
									CHANNELS 3 Zrotation Yrotation Xrotation
									JOINT Little_01_L
									{
										OFFSET 3.568800 0.000000 0.000000
										CHANNELS 3 Zrotation Yrotation Xrotation
										JOINT Little_02_L
										{
											OFFSET 2.336100 0.000000 0.000200
											CHANNELS 3 Zrotation Yrotation Xrotation
											JOINT Little_03_L
											{
												OFFSET 1.912900 0.000000 -0.000200
												CHANNELS 3 Zrotation Yrotation Xrotation
												End Site
												{
													OFFSET 0.005000 0.000000 0.000000
												}
											}
										}
									}
								}
							}
						}
					}
				}
				JOINT RightCollar
				{
					OFFSET -12.227600 21.516500 -0.711700
					CHANNELS 3 Zrotation Yrotation Xrotation
					JOINT RightShoulder
					{
						OFFSET -10.451300 0.021300 -0.002200
						CHANNELS 3 Zrotation Yrotation Xrotation
						JOINT RightElbow
						{
							OFFSET -26.123400 0.000000 0.000000
							CHANNELS 3 Zrotation Yrotation Xrotation
							JOINT RightWrist
							{
								OFFSET -25.245800 0.035400 0.002000
								CHANNELS 3 Zrotation Yrotation Xrotation
								JOINT Middle_00_R
								{
									OFFSET -11.654000 0.000000 0.000000
									CHANNELS 3 Zrotation Yrotation Xrotation
									JOINT Middle_01_R
									{
										OFFSET -4.408600 0.000000 0.000000
										CHANNELS 3 Zrotation Yrotation Xrotation
										JOINT Middle_02_R
										{
											OFFSET -3.470400 0.000000 0.000000
											CHANNELS 3 Zrotation Yrotation Xrotation
											JOINT Middle_03_R
											{
												OFFSET -2.422200 0.000000 0.000000
												CHANNELS 3 Zrotation Yrotation Xrotation
												End Site
												{
													OFFSET 0.005000 0.000000 0.000000
												}
											}
										}
									}
								}
								JOINT Ring_00_R
								{
									OFFSET -11.459300 0.000000 -3.067300
									CHANNELS 3 Zrotation Yrotation Xrotation
									JOINT Ring_01_R
									{
										OFFSET -4.107700 0.000000 0.000000
										CHANNELS 3 Zrotation Yrotation Xrotation
										JOINT Ring_02_R
										{
											OFFSET -2.971800 0.000000 0.000000
											CHANNELS 3 Zrotation Yrotation Xrotation
											JOINT Ring_03_R
											{
												OFFSET -2.159200 0.000000 0.000000
												CHANNELS 3 Zrotation Yrotation Xrotation
												End Site
												{
													OFFSET 0.005000 0.000000 0.000000
												}
											}
										}
									}
								}
								JOINT Little_00_R
								{
									OFFSET -10.887000 0.000000 -5.818300
									CHANNELS 3 Zrotation Yrotation Xrotation
									JOINT Little_01_R
									{
										OFFSET -3.568800 0.000000 0.000000
										CHANNELS 3 Zrotation Yrotation Xrotation
										JOINT Little_02_R
										{
											OFFSET -2.336100 0.000000 0.000000
											CHANNELS 3 Zrotation Yrotation Xrotation
											JOINT Little_03_R
											{
												OFFSET -1.912900 0.000000 0.000000
												CHANNELS 3 Zrotation Yrotation Xrotation
												End Site
												{
													OFFSET 0.005000 0.000000 0.000000
												}
											}
										}
									}
								}
								JOINT Index_00_R
								{
									OFFSET -11.333200 0.000000 3.234400
									CHANNELS 3 Zrotation Yrotation Xrotation
									JOINT Index_01_R
									{
										OFFSET -3.752500 0.000000 0.000000
										CHANNELS 3 Zrotation Yrotation Xrotation
										JOINT Index_02_R
										{
											OFFSET -2.704900 0.000000 0.000000
											CHANNELS 3 Zrotation Yrotation Xrotation
											JOINT Index_03_R
											{
												OFFSET -2.288400 0.000000 0.000000
												CHANNELS 3 Zrotation Yrotation Xrotation
												End Site
												{
													OFFSET 0.005000 0.000000 0.000000
												}
											}
										}
									}
								}
								JOINT Thumb_00_R
								{
									OFFSET -2.193600 -0.231700 5.095700
									CHANNELS 3 Zrotation Yrotation Xrotation
									JOINT Thumb_01_R
									{
										OFFSET -5.672200 0.231700 0.000000
										CHANNELS 3 Zrotation Yrotation Xrotation
										JOINT Thumb_02_R
										{
											OFFSET -3.353600 0.000000 0.000000
											CHANNELS 3 Zrotation Yrotation Xrotation
											JOINT Thumb_03_R
											{
												OFFSET -3.066500 0.000000 0.000000
												CHANNELS 3 Zrotation Yrotation Xrotation
												End Site
												{
													OFFSET 0.005000 0.000000 0.000000
												}
											}
										}
									}
								}
							}
						}
					}
				}
			}
		}
	}
	JOINT LeftHip
	{
		OFFSET 6.356900 0.000000 0.000000
		CHANNELS 3 Zrotation Yrotation Xrotation
		JOINT LeftKnee
		{
			OFFSET -0.000100 -37.930500 0.000000
			CHANNELS 3 Zrotation Yrotation Xrotation
			JOINT LeftAnkle
			{
				OFFSET -0.000100 -42.440200 -0.085400
				CHANNELS 3 Zrotation Yrotation Xrotation
				JOINT LeftToe
				{
					OFFSET 0.135400 -9.338000 13.882500
					CHANNELS 3 Zrotation Yrotation Xrotation
					End Site
					{
						OFFSET 0.005000 0.000000 0.000000
					}
				}
			}
		}
	}
	JOINT RightHip
	{
		OFFSET -6.356900 0.000000 0.000000
		CHANNELS 3 Zrotation Yrotation Xrotation
		JOINT RightKnee
		{
			OFFSET 0.000100 -37.930500 0.000000
			CHANNELS 3 Zrotation Yrotation Xrotation
			JOINT RightAnkle
			{
				OFFSET 0.000100 -42.440200 -0.085400
				CHANNELS 3 Zrotation Yrotation Xrotation
				JOINT RightToe
				{
					OFFSET -0.135400 -9.338000 13.882500
					CHANNELS 3 Zrotation Yrotation Xrotation
					End Site
					{
						OFFSET 0.005000 0.000000 0.000000
					}
				}
			}
		}
	}
}
MOTION
Frames: 4
Frame Time: 0.041667
0.000000 89.700000 0.000000 0.000000 0.000000 0.000000 -1.426178 3.416631 0.294726 0.441853 -1.689773 -2.598103 -0.189230 -0.493501 4.265280 1.160096 2.356994 -1.007664 -1.684189 -1.016388 1.918802 0.000000 0.000000 0.000000 -19.530506 -3.510622 -0.234207 -46.748444 -8.028347 17.120920 -13.109995 -30.397600 28.683903 -12.472805 12.346145 -24.341287 -42.972243 22.758667 -15.000000 -29.668872 0.000000 0.000000 -22.950677 0.000000 0.000000 0.022390 -0.001199 4.934506 -32.174613 18.735120 -15.000000 -25.991226 0.000000 0.000000 -33.914454 0.000000 0.000000 2.447046 -0.079831 2.056764 -29.352877 -13.022422 120.000000 -25.840234 0.000000 0.000000 15.000000 0.000000 0.000000 4.260386 -0.094452 1.375350 -35.344111 -2.136372 15.000000 -37.668244 0.000000 0.000000 -26.665264 0.000000 0.000000 -6.917769 0.291382 2.291170 -34.890996 6.121664 2.773397 -29.060872 0.000000 0.000000 -28.669130 0.000000 0.000000 0.441624 -0.014543 2.538997 20.709087 6.338062 -1.337346 47.566662 9.145077 17.878410 4.727853 37.260716 14.882652 8.452953 -28.031211 -15.082687 41.367842 -10.255238 -0.287444 38.314993 0.000000 0.000000 26.634683 0.000000 0.000000 -7.969741 -5.107087 -8.050663 39.858676 4.208757 15.000000 46.859352 0.000000 0.000000 30.296392 0.000000 0.000000 6.271931 -1.933901 -4.817211 45.464056 -3.392979 4.135593 34.042324 0.000000 0.000000 33.659138 0.000000 0.000000 -1.013052 -2.505694 -6.799366 39.730571 -17.035813 -15.000000 24.427849 0.000000 0.000000 36.057056 0.000000 0.000000 -3.109834 -2.403556 -3.139792 37.378148 9.435211 120.000000 22.206005 0.000000 0.000000 -15.000000 0.000000 0.000000 -4.610124 -2.491975 -2.359596 0.000000 0.000000 0.000000 0.000000 0.000000 0.000000 0.000000 0.000000 0.000000 0.000000 0.000000 0.000000 0.000000 0.000000 0.000000 0.000000 0.000000 0.000000 0.000000 0.000000 0.000000 0.000000 0.000000 0.000000 
0.000000 89.700000 0.000000 0.000000 0.000000 0.000000 -1.489896 3.304413 0.016139 0.450109 -1.602204 -2.486016 -0.176815 -0.437924 4.266605 1.228329 2.343123 -0.820861 -1.581235 -1.107253 1.617512 0.000000 0.000000 0.000000 -18.861042 -3.545706 -0.379252 -45.622757 -7.941756 16.994704 -14.349897 -32.634624 29.480813 -11.713777 11.916092 -26.404110 -46.043859 23.279111 -14.974079 -27.097737 0.000000 0.000000 -23.090193 0.000000 0.000000 0.022390 -0.001199 4.934506 -35.664281 19.992062 -14.989180 -23.395653 0.000000 0.000000 -33.409386 0.000000 0.000000 2.447046 -0.079831 2.056764 -28.967130 -13.974670 119.749906 -26.615915 0.000000 0.000000 14.999947 0.000000 0.000000 4.260386 -0.094452 1.375350 -40.428505 7.358343 3.795530 -35.950782 0.000000 0.000000 -26.426926 0.000000 0.000000 -6.917769 0.291382 2.291170 -38.314704 7.552662 2.653206 -26.753624 0.000000 0.000000 -28.140552 0.000000 0.000000 0.441624 -0.014543 2.538997 20.026060 6.607240 -1.443290 46.559511 9.688622 17.404002 5.423618 38.216496 15.114487 7.338401 -25.722406 -17.547264 46.395454 -17.998094 -4.732532 36.357643 0.000000 0.000000 28.712820 0.000000 0.000000 -7.969741 -5.107087 -8.050663 41.375582 -0.418617 12.735230 44.826456 0.000000 0.000000 31.979572 0.000000 0.000000 6.271931 -1.933901 -4.817211 45.484884 -8.891204 -0.462369 31.745203 0.000000 0.000000 35.644218 0.000000 0.000000 -1.013052 -2.505694 -6.799366 42.986985 -20.430025 -14.966765 23.980534 0.000000 0.000000 36.278373 0.000000 0.000000 -3.109834 -2.403556 -3.139792 36.027142 9.709874 119.910231 22.471961 0.000000 0.000000 -14.998280 0.000000 0.000000 -4.610124 -2.491975 -2.359596 0.000000 0.000000 0.000000 0.000000 0.000000 0.000000 0.000000 0.000000 0.000000 0.000000 0.000000 0.000000 0.000000 0.000000 0.000000 0.000000 0.000000 0.000000 0.000000 0.000000 0.000000 0.000000 0.000000 0.000000 
0.000000 89.700000 0.000000 0.000000 0.000000 0.000000 -1.553084 3.195430 -0.284516 0.469028 -1.516584 -2.407585 -0.162975 -0.370347 4.297674 1.297824 2.324158 -0.561815 -1.463398 -1.205872 1.343523 0.000000 0.000000 0.000000 -18.085271 -3.597154 -0.580926 -44.406233 -7.982731 16.820428 -15.670237 -35.356222 30.268808 -11.030764 11.510547 -28.010486 -48.673671 23.791734 -14.872294 -25.086999 0.000000 0.000000 -23.433306 0.000000 0.000000 0.022390 -0.001199 4.934506 -38.661612 21.161569 -14.938836 -21.380033 0.000000 0.000000 -33.058940 0.000000 0.000000 2.447046 -0.079831 2.056764 -28.300340 -15.439076 119.355241 -27.739147 0.000000 0.000000 14.999348 0.000000 0.000000 4.260386 -0.094452 1.375350 -43.963706 14.418476 -3.877965 -34.722236 0.000000 0.000000 -26.422391 0.000000 0.000000 -6.917769 0.291382 2.291170 -41.926524 9.630912 1.745454 -25.025141 0.000000 0.000000 -27.907024 0.000000 0.000000 0.441624 -0.014543 2.538997 19.260936 6.900178 -1.607599 45.454199 10.335645 16.845612 5.655985 39.739231 14.776082 6.382795 -23.422603 -19.827479 54.187693 -25.162422 -8.756761 34.222319 0.000000 0.000000 30.820907 0.000000 0.000000 -7.969741 -5.107087 -8.050663 43.198046 -6.541597 9.124699 42.545644 0.000000 0.000000 33.817130 0.000000 0.000000 6.271931 -1.933901 -4.817211 49.220002 -14.557106 -5.033782 29.166800 0.000000 0.000000 37.435725 0.000000 0.000000 -1.013052 -2.505694 -6.799366 46.570792 -23.878232 -14.813360 23.905726 0.000000 0.000000 36.859112 0.000000 0.000000 -3.109834 -2.403556 -3.139792 34.898454 10.117369 119.639568 23.302794 0.000000 0.000000 -14.985753 0.000000 0.000000 -4.610124 -2.491975 -2.359596 0.000000 0.000000 0.000000 0.000000 0.000000 0.000000 0.000000 0.000000 0.000000 0.000000 0.000000 0.000000 0.000000 0.000000 0.000000 0.000000 0.000000 0.000000 0.000000 0.000000 0.000000 0.000000 0.000000 0.000000 
0.000000 89.700000 0.000000 0.000000 0.000000 0.000000 -1.612761 3.093887 -0.622023 0.506540 -1.440963 -2.375176 -0.149738 -0.284906 4.369880 1.371558 2.296604 -0.172031 -1.328099 -1.307465 1.117311 0.000000 0.000000 0.000000 -17.147172 -3.690645 -0.884669 -43.054786 -8.276261 16.534937 -16.986903 -38.920247 30.912721 -10.647913 11.144430 -28.865797 -50.633330 23.798449 -14.520393 -23.878862 0.000000 0.000000 -23.693273 0.000000 0.000000 0.022390 -0.001199 4.934506 -41.003089 21.792853 -14.745461 -20.421889 0.000000 0.000000 -32.504480 0.000000 0.000000 2.447046 -0.079831 2.056764 -27.006684 -17.985548 118.774059 -29.091675 0.000000 0.000000 14.994536 0.000000 0.000000 4.260386 -0.094452 1.375350 -47.253227 17.734505 -6.592931 -34.145225 0.000000 0.000000 -26.462659 0.000000 0.000000 -6.917769 0.291382 2.291170 -44.562297 12.269330 0.220619 -24.048323 0.000000 0.000000 -27.745048 0.000000 0.000000 0.441624 -0.014543 2.538997 18.366239 7.233757 -1.876377 44.194431 11.164493 16.158835 5.529598 42.069141 13.912070 5.877511 -21.318152 -21.840574 59.043276 -30.833247 -11.835167 32.075842 0.000000 0.000000 32.646319 0.000000 0.000000 -7.969741 -5.107087 -8.050663 46.038137 -14.137727 3.964935 40.203054 0.000000 0.000000 35.461590 0.000000 0.000000 6.271931 -1.933901 -4.817211 53.261514 -20.015200 -9.124095 26.650815 0.000000 0.000000 38.647605 0.000000 0.000000 -1.013052 -2.505694 -6.799366 49.548537 -27.015829 -14.230842 24.852524 0.000000 0.000000 37.996737 0.000000 0.000000 -3.109834 -2.403556 -3.139792 33.954546 10.928735 118.948317 24.747885 0.000000 0.000000 -14.914437 0.000000 0.000000 -4.610124 -2.491975 -2.359596 0.000000 0.000000 0.000000 0.000000 0.000000 0.000000 0.000000 0.000000 0.000000 0.000000 0.000000 0.000000 0.000000 0.000000 0.000000 0.000000 0.000000 0.000000 0.000000 0.000000 0.000000 0.000000 0.000000 0.000000 
